<?xml version="1.0" encoding="utf-8"?>
<!-- Generated by IcoMoon.io -->
<!DOCTYPE svg PUBLIC "-//W3C//DTD SVG 1.1//EN" "http://www.w3.org/Graphics/SVG/1.1/DTD/svg11.dtd">
<svg version="1.1" xmlns="http://www.w3.org/2000/svg" xmlns:xlink="http://www.w3.org/1999/xlink" width="80" height="80" viewBox="0 0 80 80">
<path d="M71.219 44.648c-1.045 1.368-1.569 3.247-1.569 5.636v10.676c0 2.935-0.711 5.151-2.134 6.645-1.422 1.492-3.452 2.239-6.088 2.239h-3.703v-5.6h3.703c1.8 0 2.699-1.095 2.699-3.285v-10.004c0-2.686 0.408-4.988 1.224-6.905 0.816-1.916 2.333-3.198 4.551-3.845v-0.15c-2.217-0.647-3.735-1.928-4.551-3.845-0.816-1.916-1.224-4.217-1.224-6.905v-10.079c0-2.288-0.899-3.434-2.699-3.434h-3.703v-5.6h3.703c2.636 0 4.666 0.748 6.088 2.241s2.134 3.757 2.134 6.794v10.75c0 2.389 0.524 4.269 1.569 5.637 1.046 1.368 2.281 2.202 3.703 2.501v4.032c-1.422 0.3-2.657 1.134-3.703 2.502zM51.235 43.306c0.764 1.837 0.952 3.922 0.398 5.982-1.348 5.015-6.57 7.978-11.664 6.617-2.892-0.773-5.12-2.774-6.26-5.277-1.138 0.156-2.326 0.093-3.506-0.222-4.735-1.265-7.547-6.112-6.28-10.827 0.787-2.929 2.964-5.118 5.635-6.052-0.261-1.195-0.249-2.468 0.091-3.73 1.141-4.237 5.522-6.75 9.785-5.613 2.762 0.736 4.795 2.825 5.576 5.356 1.597-0.79 3.478-1.027 5.337-0.531 4.047 1.081 6.449 5.224 5.366 9.253-0.639 2.379-2.351 4.186-4.479 5.045zM12.408 67.583c-1.423-1.495-2.134-3.711-2.134-6.647v-10.678c0-2.39-0.524-4.269-1.569-5.638-1.047-1.369-2.282-2.203-3.704-2.502v-4.033c1.422-0.298 2.657-1.133 3.704-2.501 1.046-1.369 1.569-3.249 1.569-5.639v-10.753c0-3.037 0.711-5.302 2.134-6.795 1.422-1.493 3.453-2.241 6.089-2.241h3.704v5.602h-3.704c-1.8 0-2.699 1.146-2.699 3.435v10.082c0 2.688-0.408 4.99-1.224 6.907-0.816 1.918-2.334 3.199-4.551 3.846v0.15c2.218 0.647 3.735 1.93 4.551 3.846 0.816 1.918 1.224 4.22 1.224 6.907v10.006c0 2.191 0.899 3.286 2.699 3.286h3.704v5.602h-3.704c-2.637 0-4.667-0.748-6.089-2.24z" fill="rgb(68, 68, 68)"></path>
</svg>
